<svg width="1200" height="900" viewBox="0 0 1200 900" fill="none" xmlns="http://www.w3.org/2000/svg">
  <rect width="1200" height="900" rx="36" fill="#070707"/>
  <rect x="26" y="26" width="1148" height="848" rx="28" fill="url(#bg)"/>
  <rect x="94" y="116" width="1012" height="74" rx="24" fill="#0A0A0A" stroke="#3F3F46"/>
  <text x="132" y="161" fill="#E4E4E7" font-family="Arial, Helvetica, sans-serif" font-size="28" letter-spacing="4">SPORTS MEDICINE PT</text>
  <rect x="136" y="536" width="928" height="126" rx="30" fill="#09090B" stroke="#52525B"/>
  <rect x="228" y="448" width="460" height="32" rx="16" fill="#27272A"/>
  <rect x="242" y="402" width="126" height="58" rx="20" fill="#991B1B"/>
  <circle cx="442" cy="312" r="50" fill="#18181B" stroke="#71717A" stroke-width="6"/>
  <path d="M442 364L442 516" stroke="#E4E4E7" stroke-width="18" stroke-linecap="round"/>
  <path d="M442 412L358 476" stroke="#FCA5A5" stroke-width="16" stroke-linecap="round"/>
  <path d="M442 516L384 646" stroke="#E4E4E7" stroke-width="16" stroke-linecap="round"/>
  <path d="M442 516L520 648" stroke="#EF4444" stroke-width="16" stroke-linecap="round"/>
  <path d="M442 408L546 388" stroke="#EF4444" stroke-width="16" stroke-linecap="round"/>
  <path d="M664 450L930 450" stroke="#A1A1AA" stroke-width="20" stroke-linecap="round"/>
  <path d="M664 502L870 502" stroke="#F87171" stroke-width="20" stroke-linecap="round"/>
  <path d="M664 554L792 554" stroke="#F59E0B" stroke-width="20" stroke-linecap="round"/>
  <defs>
    <linearGradient id="bg" x1="60" y1="70" x2="1140" y2="830" gradientUnits="userSpaceOnUse">
      <stop stop-color="#3F0A0A"/>
      <stop offset="0.48" stop-color="#09090B"/>
      <stop offset="1" stop-color="#260909"/>
    </linearGradient>
  </defs>
</svg>
